HIERARCHY
ROOT Spine
{
    OFFSET 0.0 0.0 -0.0
    CHANNELS 6 Xposition Yposition Zposition Zrotation Xrotation Yrotation
    JOINT ShoulderCenter
    {
        OFFSET 0.0 0.22900515794754028 0.0
        CHANNELS 3 Zrotation Xrotation Yrotation
        JOINT LeftShoulder
        {
            OFFSET 0.1751856803894043 0.0 0.0
            CHANNELS 3 Zrotation Xrotation Yrotation
            JOINT LeftElbow
            {
                OFFSET 0.2634306252002716 0.0 0.0
                CHANNELS 3 Zrotation Xrotation Yrotation
                JOINT LeftHand
                {
                    OFFSET 0.34314629435539246 0.0 0.0
                    CHANNELS 3 Zrotation Xrotation Yrotation
                    End Site
                    {
                        OFFSET 0.13725851476192474 0.0 0.0
                    }
                }
            }
        }
        JOINT RightShoulder
        {
            OFFSET -0.1751856803894043 0.0 0.0
            CHANNELS 3 Zrotation Xrotation Yrotation
            JOINT RightElbow
            {
                OFFSET -0.2634306252002716 0.0 0.0
                CHANNELS 3 Zrotation Xrotation Yrotation
                JOINT RightHand
                {
                    OFFSET -0.34314629435539246 0.0 0.0
                    CHANNELS 3 Zrotation Xrotation Yrotation
                    End Site
                    {
                        OFFSET -0.13725851476192474 0.0 0.0
                    }
                }
            }
        }
        End Site
        {
            OFFSET 0.0 0.09160206466913223 0.0
        }
    }
    JOINT LeftHip
    {
        OFFSET 0.2187997585134544 -0.2187997585134544 0.0
        CHANNELS 3 Zrotation Xrotation Yrotation
        JOINT LeftKnee
        {
            OFFSET 0.0 -0.34306859970092773 0.0
            CHANNELS 3 Zrotation Xrotation Yrotation
            JOINT LeftFoot
            {
                OFFSET 0.0 -0.47206035256385803 0.0
                CHANNELS 3 Zrotation Xrotation Yrotation
                End Site
                {
                    OFFSET 0.0 0.0 0.1888241469860077
                }
            }
        }
    }
    JOINT RightHip
    {
        OFFSET -0.2187997585134544 -0.2187997585134544 0.0
        CHANNELS 3 Zrotation Xrotation Yrotation
        JOINT RightKnee
        {
            OFFSET 0.0 -0.34306859970092773 0.0
            CHANNELS 3 Zrotation Xrotation Yrotation
            JOINT RightFoot
            {
                OFFSET 0.0 -0.47206035256385803 0.0
                CHANNELS 3 Zrotation Xrotation Yrotation
                End Site
                {
                    OFFSET 0.0 0.0 0.1888241469860077
                }
            }
        }
    }
}
MOTION
Frames: 12
Frame Time: 0.03333333333333333
-0.33035680651664734 0.31897661089897156 3.475836992263794 3.1557285955109067 -16.694893484629997 132.90456671200226 1.1711533362525069e-07 -4.449972427973275e-07 -0.4829680531108459 116.7666982631588 -39.98692622485106 -163.53737227047174 -3.160784474184098e-06 -2.827011551608719e-06 109.35736004929882 0.0 0.0 3.1805546814635164e-15 -117.90680978958373 29.075627696156936 108.94770057485678 -8.689583637122862e-07 5.065534045039172e-06 -132.90912519333392 3.1805546814635168e-15 0.0 0.0 11.831804956461431 0.33956910614659414 -36.78961661667678 -11.948670412577803 -5.204631631196715 12.08410104474191 3.1805546814635164e-15 -5.517382872562698e-33 -1.9878466759146977e-16 0.9694885928157139 2.7599663999913187 46.73661025127016 4.668967914966783 -6.3399201515640025 -20.23852349165454 -1.1927080055488188e-15 -4.6035663342945016e-32 4.422958853910203e-15
-0.33211180567741394 0.32146719098091125 3.4785099029541016 3.5143897019744914 -16.876420192607448 132.5962880545799 -7.209550196013646e-07 -9.801240779380197e-08 0.06334430003378431 118.0405540688777 -39.76044418275566 -164.10245528467755 -5.753831764468474e-06 -3.6488579554653514e-06 109.57475256867485 9.103681739728452e-32 6.559894030518502e-15 -1.590277340731758e-15 -121.62923058910658 28.831075861075647 112.54975037247529 4.648714122388038e-07 -2.569412323630335e-07 -130.46796658485061 4.770832022195275e-15 6.3611093629270335e-15 -6.3611093629270335e-15 12.914180451884448 0.2028697056022932 -40.572330126989655 -11.882371402478451 -6.094111879767441 14.89408970854333 1.4896933755919285e-31 3.180554681463516e-15 -5.367186024969683e-15 2.030052497694755 2.386616622388193 41.479670988845434 4.759451111981979 -5.06871119469258 -15.814680366826444 0.0 0.0 1.9878466759146977e-16
-0.3322001099586487 0.32283419370651245 3.478564977645874 3.579510224720038 -17.01088573343832 132.47483538539305 1.2594399129697463e-06 1.74484098102006e-07 -0.3288735577936923 118.60417821876139 -38.831428861159466 -164.86848652314637 7.916193620363994e-07 6.607453022149008e-07 110.16838879163636 0.0 0.0 1.590277340731758e-15 -124.85340702655766 29.860223746079555 108.8875710774759 2.6904930094570144e-06 -7.347333386706175e-07 -126.07976005327265 0.0 0.0 0.0 13.810360418703151 0.030542163879864474 -44.824273395179986 -1.5408141143211396 -11.767227183819829 47.71076170328985 1.9878466759146976e-15 7.951386703658789e-16 -8.15017137125026e-15 2.2703833726459925 2.283607227812361 40.81965923063403 4.393651946173547 -5.340537277323282 -16.903297920213003 -3.975693351829396e-16 -1.616420763446103e-32 4.659015646675073e-15
-0.3323020935058594 0.32352688908576965 3.478835105895996 3.6109522222043653 -17.04171259972742 132.47918037619257 -6.053616482500102e-07 6.352904402631217e-07 -0.5578566458404767 119.16461845976461 -38.98449575879673 -165.4959650455332 4.549592062183227e-06 -2.682597737203636e-07 110.28858572581383 0.0 -6.3611093629270335e-15 0.0 -125.5644377953685 31.52297402933001 108.30768896136726 -2.1794816751896815e-07 -4.501675674192488e-06 -124.90175763395492 -4.4139062980501586e-32 7.951386703658792e-16 6.3611093629270335e-15 14.09858709207703 -0.030151758327859424 -46.35695311066172 -11.498372834190855 -6.940771270751463 18.149243726289505 -1.5902773407317588e-15 -5.517382872562698e-33 3.975693351829397e-16 2.3902683802429827 2.2498275700752637 40.60944177774464 4.807882883689818 -3.8920962871831115 -12.114040622750908 3.975693351829396e-16 -3.4483642953516864e-34 -9.93923337957349e-17
-0.3320971131324768 0.3249238133430481 3.480199098587036 3.6960910605532815 -17.27394066094579 132.30889482322976 3.5479579001350134e-07 -2.027292107549867e-07 -0.8469808500065618 120.20653779782741 -37.76790864451636 -166.94908307651215 1.8327334991233082e-06 -1.777867799710849e-06 111.26465379349634 -8.827812596100317e-32 6.361109362927032e-15 1.590277340731758e-15 -126.17573231898913 29.659522007670805 106.97619032451891 1.1897467102315842e-06 -4.1043535645311055e-06 -124.08097155782453 0.0 0.0 -6.3611093629270335e-15 15.02515432384107 -0.21420468740907106 -51.86023333042622 -10.769920181636746 -8.629732715545888 23.956098027417294 1.9034970910341308e-31 1.5902773407317582e-15 -1.3716142063811414e-14 2.8512100386073835 2.009055393135363 38.89259270536389 4.934652185067788 -2.976601093916986 -9.159405414607455 3.975693351829396e-16 -1.551763932908259e-33 -4.472655020808071e-16
-0.3322333097457886 0.3258630037307739 3.4819369316101074 3.726239375994198 -17.114603956094015 132.4400775607255 -9.285846866567197e-07 -2.68698193583248e-07 -0.6239595681128917 121.11920078693355 -37.40953944533808 -166.60022497480887 -2.824866908997793e-07 -9.503509895958772e-07 110.62268211096313 -1.5902773407317584e-15 0.0 0.0 -126.75324375514109 29.693232033742387 106.91476750536063 -1.7953376569328584e-06 7.342515467908161e-07 -123.5442167131465 -1.5902773407317582e-15 7.95138670365879e-16 6.361109362927033e-15 15.115472559338365 -0.2468322565856322 -52.5143646413863 -10.506225607111903 -8.796649575030145 24.78900984618862 1.5902773407317584e-15 -1.296584975052234e-31 -9.34287937679908e-15 2.843485677943918 2.0608868222961103 39.25023424086166 5.010932005818391 -2.9801963279122043 -9.11915209086095 -3.975693351829395e-16 1.590277340731758e-15 -1.3914926731402882e-15
-0.33136001229286194 0.32670560479164124 3.483983039855957 3.6639903855989755 -17.15139977865173 132.37022261948837 1.886132418117708e-07 -9.364075193225534e-07 -0.32409419848531 122.44372049722737 -37.96059380842547 -166.24625599410612 -1.217254237472457e-06 -4.1022923209142016e-06 111.10536892757149 -1.5902773407317582e-15 0.0 0.0 -125.86174166621664 29.959424434470996 105.41586964223788 -4.147380355300493e-06 7.020278632164865e-06 -122.65153268217598 0.0 0.0 0.0 14.84433863941108 -0.38528561019403024 -50.1259770010465 -11.51192432463071 -7.864784826238832 21.177420905157298 0.0 0.0 -3.975693351829396e-16 3.016877122500577 1.9833013160794417 38.68350764842295 4.787506749044099 -3.4696539984132624 -10.655978545135715 0.0 0.0 1.4908850069360232e-15
-0.33061981201171875 0.3275688886642456 3.4858779907226562 3.482866251871047 -17.003033254546132 132.21927426487187 3.986370563965047e-08 -1.2415857792068822e-06 -0.2633724548514702 122.02261407433419 -36.749708614441055 -166.90566758162356 4.300656829620534e-06 -8.481189442240775e-08 110.86153205150215 0.0 -1.987846675914698e-16 0.0 -126.74478913647883 29.25824161478922 105.72674097066522 1.6649688999742256e-06 2.926942765710314e-06 -123.04085624430597 0.0 0.0 0.0 14.833192090068541 -0.4855977508881511 -49.96313530092104 -9.865797360440423 -7.613624440651057 22.514427452602 0.0 0.0 9.93923337957349e-16 2.8732159414056935 1.8652152089943166 38.72790189938829 4.951617905115046 -2.9463714740470928 -9.071159857205132 1.8621167194899106e-32 1.5902773407317584e-15 -1.341796506242421e-15
-0.33020031452178955 0.3278011977672577 3.4868381023406982 3.339265221622546 -16.890738255686397 132.55116100772844 -1.7576476054670028e-06 1.0120606072325416e-06 -0.6023208625895435 122.31876083386211 -36.20013543367608 -167.34124162819705 -7.369567430338817e-07 2.7458711440882403e-06 111.61885738290778 0.0 6.162324695335565e-15 0.0 -124.17473709734992 29.187286162946634 104.21832479424857 1.4463500079158218e-06 1.6217608516263136e-06 -123.20635210438039 1.590277340731758e-15 -1.5902773407317584e-15 -6.361109362927033e-15 14.042150763682963 -0.5822137288296418 -46.61126426033758 -18.205614731615675 -8.726776676523519 16.989220800948377 -2.2069531490250793e-32 1.5902773407317584e-15 1.5902773407317584e-15 2.5459319995984133 1.883156324186037 39.731820932981755 -1.0923686988339802 -10.279001318853807 -40.96098374044419 -1.6552148617688095e-32 -7.951386703658792e-16 -2.3854160110976376e-15
-0.32979539036750793 0.32813820242881775 3.4862070083618164 3.278874461828965 -16.847029784541657 132.22131947483973 6.308116908950833e-07 3.0522229449574693e-07 -0.1279996129791894 121.99660069164692 -34.76718833405956 -167.69084793206983 5.56190704381671e-06 4.4825982464774715e-06 111.11364819809448 0.0 6.3611093629270335e-15 0.0 -124.76930126371053 27.242059654953596 104.57836879289678 7.958134125431152e-07 -2.2150114317933955e-06 -122.61155622163886 1.5902773407317584e-15 6.3611093629270335e-15 -8.827812596100317e-32 14.263627431892257 -0.6881202719885005 -46.486815533117486 -9.870744452281423 -5.692200887854252 17.002653344347728 3.1805546814635164e-15 -7.724336021587778e-32 -2.7829853462805768e-15 2.418996758068449 1.8931015370838784 40.25627001688083 4.843775760254834 -2.4883363169839763 -7.854544318618324 3.975693351829397e-16 -3.793200724886855e-33 -1.093315671753084e-15
-0.32961058616638184 0.32799118757247925 3.486438035964966 3.267441292559757 -16.874861888491154 132.18075094513415 -3.1929839549510903e-07 5.721489611048356e-07 0.18277202766031303 122.90905582689841 -37.31482526067446 -167.40551848600379 3.242430099580301e-06 1.2329397752645394e-07 111.3659882045048 1.5902773407317584e-15 6.3611093629270335e-15 -8.827812596100317e-32 -120.88826711001761 28.802679577614782 104.04308411382723 -2.5438902592585228e-06 5.409096238775586e-07 -125.50500029524548 0.0 6.361109362927033e-15 0.0 14.451709709404243 -0.5897458013806454 -47.72757346110482 -9.706675087467497 -6.533825613659249 19.55318506949188 7.724336021587778e-32 -1.5902773407317584e-15 5.565970692561154e-15 2.4417492403779324 1.9325717219439902 40.23481565322015 5.10357731408651 -1.6313825721885613 -5.072044671868312 0.0 0.0 -2.1369351766083005e-15
-0.329602986574173 0.32794010639190674 3.486196994781494 3.2760522758444526 -16.858531898745262 131.96665101352497 -1.936584622353745e-08 1.1312245199893628e-06 0.4784210864266986 122.4104058656004 -36.12639704598405 -167.73671412048773 7.172035732458552e-06 1.8548465069810566e-06 111.2547399730254 7.951386703658791e-16 0.0 0.0 -121.2569378285889 28.511435455789194 109.46443265018257 -2.3263790268022497e-06 7.538695443058576e-08 -128.13274613618785 3.1805546814635176e-15 -1.5902773407317588e-15 4.4139062980501586e-32 14.499496622852966 -0.3893013513879791 -48.36798986711538 -9.896663398962197 -6.693270976626574 19.56540844887241 1.5902773407317584e-15 -1.5902773407317584e-15 -3.776908684237926e-15 2.398964173182325 1.9882113471086413 40.62044960945193 5.083737712805935 -1.6489134950275108 -5.134317054808978 -1.987846675914698e-16 -1.4655548255244668e-33 8.448348372637467e-16
